<?xml version="1.0" encoding="utf-8"?>
<svg viewBox="23.307 24.201 155.094 121.48" xmlns="http://www.w3.org/2000/svg">
  <defs>
    <clipPath id="id2">
      <path d="M 337.835938 273.550781 L 479.464844 273.550781 L 479.464844 395.03125 L 337.835938 395.03125 Z M 337.835938 273.550781 " clip-rule="nonzero"/>
    </clipPath>
    <clipPath id="id3">
      <path d="M 324.371094 273.550781 L 356.347656 273.550781 L 356.347656 395.03125 L 324.371094 395.03125 Z M 324.371094 273.550781 " clip-rule="nonzero"/>
    </clipPath>
  </defs>
  <g clip-path="url(#id2)" transform="matrix(1, 0, 0, 1, -301.064087, -249.350113)">
    <path fill="#000000" d="M 464.921875 395.03125 L 340.316406 395.03125 C 338.976562 395.03125 337.890625 393.949219 337.890625 392.613281 C 337.890625 391.277344 338.976562 390.191406 340.316406 390.191406 L 464.921875 390.191406 C 470.265625 390.191406 474.617188 385.851562 474.617188 380.515625 L 474.617188 278.390625 L 353.832031 278.390625 C 352.496094 278.390625 351.410156 277.304688 351.410156 275.96875 C 351.410156 274.632812 352.496094 273.546875 353.832031 273.546875 L 477.039062 273.546875 C 478.378906 273.546875 479.464844 274.632812 479.464844 275.96875 L 479.464844 380.515625 C 479.464844 388.519531 472.941406 395.03125 464.921875 395.03125 " fill-opacity="1" fill-rule="evenodd"/>
  </g>
  <g clip-path="url(#id3)" transform="matrix(1, 0, 0, 1, -301.064087, -249.350113)">
    <path fill="#000000" d="M 340.316406 395.03125 C 331.523438 395.03125 324.371094 387.890625 324.371094 379.113281 L 324.371094 290.730469 C 324.371094 289.394531 325.457031 288.3125 326.796875 288.3125 L 335.882812 288.3125 C 337.21875 288.3125 338.308594 289.394531 338.308594 290.730469 C 338.308594 292.066406 337.21875 293.152344 335.882812 293.152344 L 329.21875 293.152344 L 329.21875 379.113281 C 329.21875 385.222656 334.195312 390.191406 340.316406 390.191406 C 346.433594 390.191406 351.410156 385.222656 351.410156 379.113281 L 351.410156 275.96875 C 351.410156 274.632812 352.496094 273.546875 353.832031 273.546875 C 355.171875 273.546875 356.257812 274.632812 356.257812 275.96875 L 356.257812 379.113281 C 356.257812 387.890625 349.105469 395.03125 340.316406 395.03125 " fill-opacity="1" fill-rule="evenodd"/>
  </g>
  <path fill="#000000" d="M 34.819 132.181 C 33.483 132.181 32.398 131.099 32.398 129.763 L 32.398 36.4 C 32.398 35.064 33.483 33.978 34.819 33.978 L 43.683 33.978 C 45.019 33.978 46.105 35.064 46.105 36.4 C 46.105 37.736 45.019 38.822 43.683 38.822 L 37.245 38.822 L 37.245 129.763 C 37.245 131.099 36.155 132.181 34.819 132.181" fill-opacity="1" fill-rule="evenodd"/>
  <path fill="#000000" d="M 39.253 136.607 C 35.472 136.607 32.398 133.537 32.398 129.763 C 32.398 128.427 33.483 127.341 34.819 127.341 C 36.155 127.341 37.245 128.427 37.245 129.763 C 37.245 130.869 38.144 131.767 39.253 131.767 C 40.358 131.767 41.261 130.869 41.261 129.763 L 41.261 31.423 C 41.261 30.087 42.343 29.002 43.683 29.002 L 52.769 29.002 C 54.108 29.002 55.194 30.087 55.194 31.423 C 55.194 32.759 54.108 33.841 52.769 33.841 L 46.105 33.841 L 46.105 129.763 C 46.105 133.537 43.03 136.607 39.253 136.607" fill-opacity="1" fill-rule="evenodd"/>
  <g fill="#000000" fill-opacity="1" transform="matrix(1.44596, 0, 0, 1.44596, -485.206726, -405.106079)" style="">
    <g transform="translate(385.919205, 360.571499)">
      <g>
        <path d="M 22.15625 1.5625 C 18.34375 1.5625 15.015625 0.625 12.171875 -1.25 C 9.328125 -3.125 7.109375 -5.773438 5.515625 -9.203125 C 3.921875 -12.640625 3.125 -16.609375 3.125 -21.109375 C 3.125 -25.128906 4.039062 -28.785156 5.875 -32.078125 C 7.707031 -35.378906 10.148438 -38.035156 13.203125 -40.046875 C 16.253906 -42.054688 19.582031 -43.0625 23.1875 -43.0625 C 25.96875 -43.0625 28.429688 -42.503906 30.578125 -41.390625 C 32.722656 -40.285156 34.398438 -38.742188 35.609375 -36.765625 C 36.828125 -34.785156 37.4375 -32.515625 37.4375 -29.953125 C 37.4375 -27.804688 36.394531 -26.734375 34.3125 -26.734375 L 12.375 -26.734375 C 11.40625 -26.734375 10.726562 -26.472656 10.34375 -25.953125 C 9.96875 -25.429688 9.78125 -24.40625 9.78125 -22.875 C 9.78125 -19.550781 10.503906 -16.519531 11.953125 -13.78125 C 13.410156 -11.039062 15.351562 -8.851562 17.78125 -7.21875 C 20.207031 -5.59375 22.878906 -4.78125 25.796875 -4.78125 C 27.867188 -4.78125 29.753906 -5.175781 31.453125 -5.96875 C 33.160156 -6.769531 34.671875 -7.9375 35.984375 -9.46875 C 36.265625 -9.8125 36.472656 -10.035156 36.609375 -10.140625 C 36.742188 -10.242188 36.914062 -10.296875 37.125 -10.296875 C 37.675781 -10.296875 37.953125 -9.945312 37.953125 -9.25 C 37.953125 -7.9375 37.332031 -6.484375 36.09375 -4.890625 C 35.050781 -3.566406 33.800781 -2.421875 32.34375 -1.453125 C 30.882812 -0.484375 29.285156 0.257812 27.546875 0.78125 C 25.816406 1.300781 24.019531 1.5625 22.15625 1.5625 Z M 12.578125 -29.953125 L 22.046875 -29.953125 C 23.710938 -29.953125 25.132812 -29.984375 26.3125 -30.046875 C 27.488281 -30.117188 28.632812 -30.257812 29.75 -30.46875 C 30.09375 -30.539062 30.316406 -30.765625 30.421875 -31.140625 C 30.523438 -31.523438 30.578125 -32.066406 30.578125 -32.765625 C 30.578125 -34.773438 29.691406 -36.488281 27.921875 -37.90625 C 26.148438 -39.332031 24.050781 -40.046875 21.625 -40.046875 C 20.03125 -40.046875 18.4375 -39.578125 16.84375 -38.640625 C 15.25 -37.703125 13.929688 -36.539062 12.890625 -35.15625 C 11.859375 -33.769531 11.34375 -32.378906 11.34375 -30.984375 C 11.34375 -30.296875 11.753906 -29.953125 12.578125 -29.953125 Z M 12.578125 -29.953125 "/>
      </g>
    </g>
  </g>
  <g fill="#000000" fill-opacity="1" transform="matrix(1.44596, 0, 0, 1.44596, -485.206726, -405.106079)" style="">
    <g transform="translate(426.40589, 359.733165)">
      <g>
        <path d="M 9.203125 1.125 C 8.023438 1.125 6.992188 0.6875 6.109375 -0.1875 C 5.234375 -1.070312 4.796875 -2.101562 4.796875 -3.28125 C 4.796875 -4.507812 5.234375 -5.550781 6.109375 -6.40625 C 6.992188 -7.257812 8.023438 -7.6875 9.203125 -7.6875 C 10.429688 -7.6875 11.46875 -7.257812 12.3125 -6.40625 C 13.164062 -5.550781 13.59375 -4.507812 13.59375 -3.28125 C 13.59375 -2.101562 13.164062 -1.070312 12.3125 -0.1875 C 11.46875 0.6875 10.429688 1.125 9.203125 1.125 Z M 9.203125 1.125 "/>
      </g>
    </g>
  </g>
</svg>